# xmcd
#
# Track frame offsets:
#	150
#	16363
#	33653
#	51353
#	89669
#	102939
#	125306
#	144322
#	161317
#	178016
#	194907
#	209380
#	231423
#	248359
#	266335
#	284850
#	301443
#	317532
#
# Disc length: 4429 seconds
#
# Revision: 1
# Processed by: cddbd v1.5.1PL0 Copyright (c) Steve Scherf et al.
# Submitted via: EasyCDDAExtractor 6.0.0.1
#
DISCID=08114b12
DTITLE=Various Artist - RNB TRIPLE THREAT
DYEAR=2003
DGENRE=R&B
TTITLE0=VARIOUS ARTIST - HGET BUSY
TTITLE1=GIMME THE LIGHT
TTITLE2=LIKE GLUE
TTITLE3=WHERE IS THE LOVE
TTITLE4=THE APL SONG
TTITLE5=SHUT UP
TTITLE6=PIMP
TTITLE7=21 QUESTION
TTITLE8=IN THE CLUB
TTITLE9=THOIA THOING
TTITLE10=IGNITION
TTITLE11=SNAKE
TTITLE12=FIGHTING TEMPTATION
TTITLE13=CRAZY IN LOVE
TTITLE14=BABY BOY
TTITLE15=ME AGAINST THE M,USIC
TTITLE16=THATS WHERE YOU TAKE ME
TTITLE17=ANTICIPATING
EXTD=
EXTT0=
EXTT1=
EXTT2=
EXTT3=
EXTT4=
EXTT5=
EXTT6=
EXTT7=
EXTT8=
EXTT9=
EXTT10=
EXTT11=
EXTT12=
EXTT13=
EXTT14=
EXTT15=
EXTT16=
EXTT17=
PLAYORDER=
